STARTFONT 2.1
FONT -FontForge-Bree Serif-Book-R-Normal--32-720-32-32-P-165-ISO10646-1
SIZE 72 32 32
FONTBOUNDINGBOX 31 32 -3 -7
COMMENT "Generated by fontforge, http://fontforge.sourceforge.net"
COMMENT "Copyright (c) 2011, TypeTogether (www.type-together.com), with Reserved Font Names "Bree" and "Bree Serif""
STARTPROPERTIES 38
FOUNDRY "FontForge"
FAMILY_NAME "Bree Serif"
WEIGHT_NAME "Book"
SLANT "R"
SETWIDTH_NAME "Normal"
ADD_STYLE_NAME ""
PIXEL_SIZE 32
POINT_SIZE 720
RESOLUTION_X 32
RESOLUTION_Y 32
SPACING "P"
AVERAGE_WIDTH 165
CHARSET_REGISTRY "ISO10646"
CHARSET_ENCODING "1"
FONTNAME_REGISTRY ""
CHARSET_COLLECTIONS "ISO8859-2 ISO8859-9 ISO8859-4 ISO10646-1"
FONT_NAME "BreeSerif-Regular"
FACE_NAME "Bree Serif Regular"
COPYRIGHT "Copyright (c) 2011, TypeTogether (www.type-together.com), with Reserved Font Names "Bree" and "Bree Serif""
FONT_VERSION "1.002"
FONT_ASCENT 26
FONT_DESCENT 6
UNDERLINE_POSITION -3
UNDERLINE_THICKNESS 2
X_HEIGHT 15
CAP_HEIGHT 20
RAW_ASCENT 800
RAW_DESCENT 200
RELATIVE_WEIGHT 40
RELATIVE_SETWIDTH 50
SUPERSCRIPT_X 0
SUPERSCRIPT_Y 15
SUPERSCRIPT_SIZE 20
SUBSCRIPT_X 0
SUBSCRIPT_Y 4
SUBSCRIPT_SIZE 20
AVG_LOWERCASE_WIDTH 165
AVG_UPPERCASE_WIDTH 196
ENDPROPERTIES
CHARS 94
STARTCHAR exclam
ENCODING 33
SWIDTH 277 0
DWIDTH 9 0
BBX 5 23 2 -1
BITMAP
70
70
70
70
70
70
70
70
70
70
70
70
70
70
70
70
00
00
60
F0
F8
F0
20
ENDCHAR
STARTCHAR quotedbl
ENCODING 34
SWIDTH 349 0
DWIDTH 11 0
BBX 7 7 2 14
BITMAP
EE
EE
EE
E6
E6
E6
C6
ENDCHAR
STARTCHAR numbersign
ENCODING 35
SWIDTH 534 0
DWIDTH 17 0
BBX 15 19 1 0
BITMAP
0C30
0C30
0C30
0C30
0C70
FFFE
FFFE
1C70
1C70
1C60
1860
1860
FFFC
FFFC
1860
1860
18E0
18E0
38E0
ENDCHAR
STARTCHAR dollar
ENCODING 36
SWIDTH 535 0
DWIDTH 17 0
BBX 14 27 2 -3
BITMAP
0700
0700
0700
0FE0
3FF8
7FF8
FF78
F738
F738
F700
FF00
FF00
7FC0
3FF0
07F8
07F8
0778
177C
E778
E778
F7F8
FFF0
FFE0
0F00
0700
0700
0700
ENDCHAR
STARTCHAR percent
ENCODING 37
SWIDTH 801 0
DWIDTH 26 0
BBX 24 21 1 0
BITMAP
1F0100
7F81C0
738380
E1C380
E1C700
E1C700
E1CE00
E1CE00
E1DC00
7F9C00
3F38F8
1E39FE
007B8E
007386
00F307
00E307
00E307
01C386
01C38E
0383FE
0181FC
ENDCHAR
STARTCHAR ampersand
ENCODING 38
SWIDTH 714 0
DWIDTH 23 0
BBX 20 23 2 -1
BITMAP
00C000
07FC00
0FFE00
1F3E00
1E1E00
1C1E00
1C1C00
1E0000
1E0000
1F0FE0
3F8FE0
7FC7E0
FBC380
F3F380
E1FF80
E0FF80
E03F00
F01F00
F83F80
7FFFE0
7FFBF0
1FF0E0
000040
ENDCHAR
STARTCHAR quotesingle
ENCODING 39
SWIDTH 205 0
DWIDTH 7 0
BBX 3 7 2 14
BITMAP
E0
E0
E0
E0
E0
E0
C0
ENDCHAR
STARTCHAR parenleft
ENCODING 40
SWIDTH 331 0
DWIDTH 11 0
BBX 7 29 2 -6
BITMAP
0C
1E
1E
1C
3C
3C
78
78
78
70
F0
F0
F0
F0
F0
F0
F0
F0
70
78
78
78
38
3C
3C
1E
1E
0E
08
ENDCHAR
STARTCHAR parenright
ENCODING 41
SWIDTH 331 0
DWIDTH 11 0
BBX 7 29 1 -6
BITMAP
70
F0
78
78
3C
3C
3C
1E
1E
1E
1E
1E
0E
0E
0E
0E
1E
1E
1E
1E
1E
3C
3C
3C
78
78
F0
70
10
ENDCHAR
STARTCHAR asterisk
ENCODING 42
SWIDTH 452 0
DWIDTH 14 0
BBX 12 11 1 13
BITMAP
0F00
0700
0700
7670
7EF0
FFF0
0F00
1F80
39E0
38E0
10C0
ENDCHAR
STARTCHAR plus
ENCODING 43
SWIDTH 535 0
DWIDTH 17 0
BBX 13 14 2 3
BITMAP
0700
0700
0700
0700
0700
FFF8
FFF8
FFF8
0700
0700
0700
0700
0700
0700
ENDCHAR
STARTCHAR comma
ENCODING 44
SWIDTH 241 0
DWIDTH 8 0
BBX 5 9 1 -5
BITMAP
30
78
78
78
70
70
E0
E0
40
ENDCHAR
STARTCHAR hyphen
ENCODING 45
SWIDTH 322 0
DWIDTH 10 0
BBX 8 3 1 8
BITMAP
FF
FF
FF
ENDCHAR
STARTCHAR period
ENCODING 46
SWIDTH 226 0
DWIDTH 7 0
BBX 5 4 1 0
BITMAP
70
F8
F8
78
ENDCHAR
STARTCHAR slash
ENCODING 47
SWIDTH 428 0
DWIDTH 14 0
BBX 13 28 0 -4
BITMAP
0030
0078
0078
0070
00F0
00F0
00E0
01E0
01E0
03C0
03C0
0380
0780
0780
0700
0F00
0F00
1E00
1E00
1E00
3C00
3C00
3800
7800
7800
7000
F000
1000
ENDCHAR
STARTCHAR zero
ENCODING 48
SWIDTH 535 0
DWIDTH 17 0
BBX 15 21 1 0
BITMAP
07E0
1FF0
3FF8
3C7C
783C
781C
F01E
F01E
F01E
F01E
F01E
F01E
F01E
F01E
F01E
701C
783C
7C7C
3FF8
1FF0
0FE0
ENDCHAR
STARTCHAR one
ENCODING 49
SWIDTH 454 0
DWIDTH 15 0
BBX 13 21 1 0
BITMAP
0380
0F80
1F80
7F80
FF80
7380
0380
0380
0380
0380
0380
0380
0380
0380
0380
0380
0380
0380
3FF8
3FF8
3FF8
ENDCHAR
STARTCHAR two
ENCODING 50
SWIDTH 513 0
DWIDTH 16 0
BBX 13 21 2 0
BITMAP
1F80
FFE0
FFF0
F1F0
E0F0
E0F8
E0F0
00F0
00F0
01E0
03E0
07C0
0780
0F00
1E00
3E00
7C00
7800
FFF8
FFF8
FFF8
ENDCHAR
STARTCHAR three
ENCODING 51
SWIDTH 522 0
DWIDTH 17 0
BBX 14 21 1 0
BITMAP
0FC0
7FF0
7FF8
78F8
7078
7038
7078
0078
00F0
0FF0
0FE0
0FF8
00F8
003C
003C
003C
003C
6078
7FF8
FFF0
3FE0
ENDCHAR
STARTCHAR four
ENCODING 52
SWIDTH 536 0
DWIDTH 17 0
BBX 15 21 1 0
BITMAP
0200
0380
0780
0700
0F00
0E00
1E30
1C30
3C70
3C70
7870
7870
FFFE
FFFE
FFFE
00F0
00F0
00F0
03FE
03FE
03FE
ENDCHAR
STARTCHAR five
ENCODING 53
SWIDTH 507 0
DWIDTH 16 0
BBX 13 23 1 0
BITMAP
0038
0038
1FF8
1FF8
1FF8
1C00
3C00
3C00
3800
3800
3E00
3FC0
3FE0
07F0
00F8
0078
0078
0078
0078
60F8
FFF0
FFF0
7FC0
ENDCHAR
STARTCHAR six
ENCODING 54
SWIDTH 534 0
DWIDTH 17 0
BBX 14 21 2 0
BITMAP
01E0
07E0
1FE0
3F00
3C00
7800
7800
F000
F7E0
FFF0
FFF8
F078
F038
F03C
F03C
F03C
F078
7878
7FF0
3FF0
1FC0
ENDCHAR
STARTCHAR seven
ENCODING 55
SWIDTH 475 0
DWIDTH 15 0
BBX 14 21 1 0
BITMAP
FFFC
FFFC
FFFC
FFF8
E078
E078
00F0
00F0
00E0
01E0
01E0
03C0
03C0
0780
0780
0700
0F00
0F00
1E00
1E00
3C00
ENDCHAR
STARTCHAR eight
ENCODING 56
SWIDTH 535 0
DWIDTH 17 0
BBX 15 21 1 0
BITMAP
07E0
1FF0
3FF8
7C3C
783C
783C
7838
3C78
3FF0
0FE0
0FF0
3FF8
3C7C
783C
703E
F01E
703E
783C
7FFC
3FF8
1FF0
ENDCHAR
STARTCHAR nine
ENCODING 57
SWIDTH 535 0
DWIDTH 17 0
BBX 13 21 2 0
BITMAP
0F80
3FE0
7FF0
F8F0
F078
F078
E038
E038
F038
F038
F9F8
7FF8
3FF8
0078
0078
00F0
01F0
07E0
3FC0
3F80
3E00
ENDCHAR
STARTCHAR colon
ENCODING 58
SWIDTH 226 0
DWIDTH 7 0
BBX 5 16 1 0
BITMAP
70
F8
F8
78
00
00
00
00
00
00
00
00
70
F8
F8
78
ENDCHAR
STARTCHAR semicolon
ENCODING 59
SWIDTH 241 0
DWIDTH 8 0
BBX 6 21 1 -5
BITMAP
38
7C
7C
7C
38
00
00
00
00
00
00
00
30
78
78
78
70
70
E0
E0
40
ENDCHAR
STARTCHAR less
ENCODING 60
SWIDTH 535 0
DWIDTH 17 0
BBX 13 14 2 3
BITMAP
0030
00F8
03F8
0FE0
3F80
FE00
F800
FC00
7F00
1FC0
07F0
01F8
0078
0010
ENDCHAR
STARTCHAR equal
ENCODING 61
SWIDTH 535 0
DWIDTH 17 0
BBX 13 9 2 5
BITMAP
FFF8
FFF8
FFF8
0000
0000
0000
FFF8
FFF8
FFF8
ENDCHAR
STARTCHAR greater
ENCODING 62
SWIDTH 535 0
DWIDTH 17 0
BBX 13 14 2 3
BITMAP
6000
7800
FE00
3F80
0FE0
03F8
0078
01F8
07F0
1FC0
7F00
FC00
7000
4000
ENDCHAR
STARTCHAR question
ENCODING 63
SWIDTH 433 0
DWIDTH 14 0
BBX 12 23 1 -1
BITMAP
3FC0
FFE0
FFE0
F0F0
F0F0
F0F0
01E0
03E0
07C0
0F80
1F00
1E00
1E00
1E00
1E00
1C00
0000
0000
0C00
1E00
1E00
1E00
0800
ENDCHAR
STARTCHAR at
ENCODING 64
SWIDTH 953 0
DWIDTH 31 0
BBX 26 27 2 -6
BITMAP
001F8000
00FFF000
03FFFC00
07C03E00
0F000F00
1C000780
38000380
781FC1C0
707FE1C0
70F0E1C0
F0E0E1C0
E0E0E0C0
E1C0E1C0
E1C0E1C0
E1C0E1C0
E1C0E1C0
E1E0E180
E0E1E380
70F3EF00
707FFE00
783EF800
38000000
1C000000
1F000000
0FC1C000
03FFE000
00FF8000
ENDCHAR
STARTCHAR A
ENCODING 65
SWIDTH 662 0
DWIDTH 21 0
BBX 21 21 0 0
BITMAP
07F800
07F800
01FC00
01FC00
01DC00
03DE00
039E00
038E00
078F00
070F00
070700
0F0780
0FFF80
0FFFC0
1FFFC0
1E03C0
3C03E0
3C01E0
FF07F8
FF07F8
FF07F8
ENDCHAR
STARTCHAR B
ENCODING 66
SWIDTH 602 0
DWIDTH 19 0
BBX 17 21 1 0
BITMAP
FFFC00
FFFE00
7FFF00
3C0F00
3C0F00
3C0F00
3C0F00
3C1F00
3FFE00
3FF800
3FFE00
3C1F00
3C0F80
3C0780
3C0780
3C0780
3C0780
3C0F80
FFFF00
FFFE00
FFF800
ENDCHAR
STARTCHAR C
ENCODING 67
SWIDTH 602 0
DWIDTH 19 0
BBX 17 22 1 0
BITMAP
00F000
07FF00
0FFF00
1FFF00
3E0700
7C0700
780700
780000
F80000
F00000
F00000
F00000
F00000
F00000
F80000
780700
780780
7C0780
3E0780
1FFF80
0FFF80
07FF00
ENDCHAR
STARTCHAR D
ENCODING 68
SWIDTH 665 0
DWIDTH 21 0
BBX 19 21 1 0
BITMAP
FFFC00
FFFE00
7FFF80
3C0F80
3C07C0
3C03C0
3C03E0
3C01E0
3C01E0
3C01E0
3C01E0
3C01E0
3C01E0
3C01E0
3C03C0
3C03C0
3C0780
3C1F80
FFFF00
FFFE00
FFF000
ENDCHAR
STARTCHAR E
ENCODING 69
SWIDTH 549 0
DWIDTH 18 0
BBX 15 21 1 0
BITMAP
FFFE
FFFE
7FFE
3C0E
3C0E
3C00
3C00
3C00
3FF8
3FF8
3FF8
3FF8
3C00
3C00
3C00
3C0E
3C0E
3C0E
FFFE
FFFE
FFFE
ENDCHAR
STARTCHAR F
ENCODING 70
SWIDTH 543 0
DWIDTH 17 0
BBX 16 21 1 0
BITMAP
FFFF
FFFF
7FFF
3C0F
3C0F
3C00
3C00
3C00
3C00
3FFC
3FFC
3FFC
3C00
3C00
3C00
3C00
3C00
3C00
FF80
FF80
FF80
ENDCHAR
STARTCHAR G
ENCODING 71
SWIDTH 641 0
DWIDTH 21 0
BBX 19 22 1 0
BITMAP
007000
03FF00
0FFF80
1FFF80
3E0780
3C0780
780780
780000
780000
F00000
F00000
F01FE0
F01FE0
F01FC0
F80780
780780
780780
7C0780
3E0780
1FFF80
0FFF80
07FE00
ENDCHAR
STARTCHAR H
ENCODING 72
SWIDTH 712 0
DWIDTH 23 0
BBX 21 21 1 0
BITMAP
FF07F8
FF07F8
7E03F0
3C01E0
3C01E0
3C01E0
3C01E0
3C01E0
3FFFE0
3FFFE0
3FFFE0
3FFFE0
3C01E0
3C01E0
3C01E0
3C01E0
3C01E0
3C01E0
FF07F8
FF07F8
FF07F8
ENDCHAR
STARTCHAR I
ENCODING 73
SWIDTH 307 0
DWIDTH 10 0
BBX 8 21 1 0
BITMAP
FF
FF
7E
3C
3C
3C
3C
3C
3C
3C
3C
3C
3C
3C
3C
3C
3C
3C
FF
FF
FF
ENDCHAR
STARTCHAR J
ENCODING 74
SWIDTH 474 0
DWIDTH 15 0
BBX 14 21 1 0
BITMAP
07FC
07FC
03F0
00F0
00F0
00F0
00F0
00F0
00F0
00F0
00F0
00F0
00F0
00F0
E0F0
E0F0
E0F0
E1E0
FFE0
FFC0
7F80
ENDCHAR
STARTCHAR K
ENCODING 75
SWIDTH 622 0
DWIDTH 20 0
BBX 19 21 1 0
BITMAP
FF1FC0
FF1FC0
7E0F80
3C0F00
3C1E00
3C3C00
3C7800
3CF000
3DF000
3DF000
3FF000
3FF800
3F7800
3E3C00
3C3E00
3C1E00
3C1F00
3C0F00
FF3FE0
FF3FE0
FF3FE0
ENDCHAR
STARTCHAR L
ENCODING 76
SWIDTH 537 0
DWIDTH 17 0
BBX 15 21 1 0
BITMAP
FF00
FF00
7E00
3C00
3C00
3C00
3C00
3C00
3C00
3C00
3C00
3C00
3C00
3C00
3C08
3C0E
3C0E
3C0E
FFFE
FFFE
FFFE
ENDCHAR
STARTCHAR M
ENCODING 77
SWIDTH 834 0
DWIDTH 27 0
BBX 25 21 1 0
BITMAP
FE003F00
FF007F00
7F007E00
3F00FC00
3F80FC00
3F80FC00
3F81FC00
3FC1DC00
3DC1DE00
3DE39E00
3DE39E00
38E79E00
38F71E00
38771E00
387E1E00
387E1E00
383E1E00
383C1E00
FE1C7F80
FE007F80
FE007F80
ENDCHAR
STARTCHAR N
ENCODING 78
SWIDTH 705 0
DWIDTH 23 0
BBX 21 21 1 0
BITMAP
FC07F8
FE07F8
7F03E0
3F01E0
3F81E0
3FC1E0
3FC1E0
3DE1E0
3DE1E0
3CF1E0
3C79E0
3C79E0
3C3DE0
3C3DE0
3C1FE0
3C0FE0
3C0FE0
3C07E0
FF03E0
FF03E0
FF01E0
ENDCHAR
STARTCHAR O
ENCODING 79
SWIDTH 664 0
DWIDTH 21 0
BBX 19 22 1 0
BITMAP
00F000
07FC00
0FFF00
1FFF80
3E0780
7C03C0
7803C0
7803E0
F801E0
F001E0
F001E0
F001E0
F001E0
F001E0
F801E0
7803C0
7803C0
7C07C0
3E0F80
1FFF80
0FFF00
07FC00
ENDCHAR
STARTCHAR P
ENCODING 80
SWIDTH 590 0
DWIDTH 19 0
BBX 17 21 1 0
BITMAP
FFF800
FFFE00
7FFF00
3C0F00
3C0F80
3C0780
3C0780
3C0780
3C0F80
3C0F00
3FFF00
3FFE00
3FF800
3F8000
3C0000
3C0000
3C0000
3C0000
FF8000
FF8000
FF8000
ENDCHAR
STARTCHAR Q
ENCODING 81
SWIDTH 664 0
DWIDTH 21 0
BBX 22 27 1 -5
BITMAP
00F000
07FC00
0FFF00
1FFF80
3E0780
7C07C0
7803C0
7803E0
F001E0
F001E0
F001E0
F001E0
F001E0
F001E0
F801E0
7803C0
7803C0
7C07C0
3E0F80
1FFF00
0FFE00
03F800
00FE00
00FF80
011FFC
0003F8
0000F8
ENDCHAR
STARTCHAR R
ENCODING 82
SWIDTH 626 0
DWIDTH 20 0
BBX 19 21 1 0
BITMAP
FFFC00
FFFE00
7FFF00
3C0F00
3C0F80
3C0780
3C0780
3C0F00
3C0F00
3C7E00
3FFC00
3FF800
3FFC00
3C1E00
3C1E00
3C1F00
3C0F00
3C0F80
FF1FE0
FF1FE0
FF1FE0
ENDCHAR
STARTCHAR S
ENCODING 83
SWIDTH 522 0
DWIDTH 17 0
BBX 15 22 1 0
BITMAP
0180
1FF8
3FFC
7FFC
781C
F81C
F018
F800
7C00
7F80
3FE0
1FF8
07FC
00FC
003E
003E
F01E
F03E
F07C
FFFC
FFF8
7FE0
ENDCHAR
STARTCHAR T
ENCODING 84
SWIDTH 553 0
DWIDTH 18 0
BBX 17 21 0 0
BITMAP
FFFF80
FFFF80
FFFF80
F1E380
F1E380
01E000
01E000
01E000
01E000
01E000
01E000
01E000
01E000
01E000
01E000
01E000
01E000
01E000
0FF800
0FF800
0FF800
ENDCHAR
STARTCHAR U
ENCODING 85
SWIDTH 659 0
DWIDTH 21 0
BBX 20 21 1 0
BITMAP
FE0FF0
FE0FF0
7C07C0
3803C0
3803C0
3803C0
3803C0
3803C0
3803C0
3803C0
3803C0
3803C0
3803C0
3803C0
3803C0
3C03C0
3C0780
3E0F80
3FFF00
1FFF00
07FC00
ENDCHAR
STARTCHAR V
ENCODING 86
SWIDTH 654 0
DWIDTH 21 0
BBX 21 21 0 0
BITMAP
FF07F8
FF07F8
7E03E0
3C01E0
1E01C0
1E03C0
1E03C0
0F0380
0F0780
0F0780
078700
078F00
038F00
03CE00
03DE00
01DE00
01FC00
01FC00
00FC00
00F800
00F800
ENDCHAR
STARTCHAR W
ENCODING 87
SWIDTH 885 0
DWIDTH 28 0
BBX 28 21 0 0
BITMAP
FF0007F0
FF0F07F0
7E0F83E0
3C0F83C0
3C0F83C0
1E1F83C0
1E1FC380
1E1FC380
1E1DC780
0E3DC780
0F39E700
0F39E700
0F38E700
0738EF00
07F0FF00
07F0FE00
07F07E00
03F07E00
03E07E00
03E07C00
03E07C00
ENDCHAR
STARTCHAR X
ENCODING 88
SWIDTH 621 0
DWIDTH 20 0
BBX 20 21 0 0
BITMAP
7F8FE0
7F8FE0
7F8FC0
1F0F80
0F0F00
079E00
07FC00
03FC00
01F800
01F000
01F800
03F800
03FC00
07BE00
0F1E00
0F0F00
1E0F80
3C0780
FF1FF0
FF1FF0
FF1FF0
ENDCHAR
STARTCHAR Y
ENCODING 89
SWIDTH 570 0
DWIDTH 18 0
BBX 18 21 0 0
BITMAP
FF1FC0
FF1FC0
7E0F80
3C0F00
1E0E00
1E1E00
0F1C00
0F3C00
07B800
07F800
03F000
03F000
01E000
01E000
01E000
01E000
01E000
01E000
0FFC00
0FFC00
0FFC00
ENDCHAR
STARTCHAR Z
ENCODING 90
SWIDTH 533 0
DWIDTH 17 0
BBX 15 21 1 0
BITMAP
FFFC
FFFC
FFFC
F07C
F078
00F0
01F0
01E0
03C0
03C0
0780
0F80
0F00
1E00
3E00
3C0E
780E
781E
FFFE
FFFE
FFFE
ENDCHAR
STARTCHAR bracketleft
ENCODING 91
SWIDTH 325 0
DWIDTH 10 0
BBX 6 28 3 -5
BITMAP
FC
FC
FC
E0
E0
E0
E0
E0
E0
E0
E0
E0
E0
E0
E0
E0
E0
E0
E0
E0
E0
E0
E0
E0
E0
E0
FC
FC
ENDCHAR
STARTCHAR backslash
ENCODING 92
SWIDTH 440 0
DWIDTH 14 0
BBX 14 27 0 -3
BITMAP
3000
F000
7800
7800
3C00
3C00
1C00
1E00
1E00
0E00
0F00
0F00
0700
0780
0780
03C0
03C0
01C0
01E0
01E0
00E0
00F0
00F0
0078
0078
0038
003C
ENDCHAR
STARTCHAR bracketright
ENCODING 93
SWIDTH 325 0
DWIDTH 10 0
BBX 7 28 1 -5
BITMAP
FE
FE
FE
1E
1E
1E
1E
1E
1E
1E
1E
1E
1E
1E
1E
1E
1E
1E
1E
1E
1E
1E
1E
1E
1E
1E
FE
FE
ENDCHAR
STARTCHAR asciicircum
ENCODING 94
SWIDTH 553 0
DWIDTH 18 0
BBX 14 13 2 9
BITMAP
0700
0780
0F80
0FC0
1FC0
1DE0
3CE0
38F0
7870
7078
F038
E03C
E01C
ENDCHAR
STARTCHAR underscore
ENCODING 95
SWIDTH 500 0
DWIDTH 16 0
BBX 16 3 0 -5
BITMAP
FFFF
FFFF
FFFF
ENDCHAR
STARTCHAR grave
ENCODING 96
SWIDTH 500 0
DWIDTH 16 0
BBX 6 7 5 18
BITMAP
60
E0
F0
78
38
1C
0C
ENDCHAR
STARTCHAR a
ENCODING 97
SWIDTH 567 0
DWIDTH 18 0
BBX 16 17 1 0
BITMAP
01C0
0FFC
1FFC
3E3C
781C
781C
781C
F01C
F01C
F01C
F01C
F01C
781C
783C
7E7F
3FFF
1FDF
ENDCHAR
STARTCHAR b
ENCODING 98
SWIDTH 556 0
DWIDTH 18 0
BBX 16 23 1 0
BITMAP
F800
F800
F800
7800
7800
7800
7840
7FF8
7FFC
7E7E
7C1E
781E
781E
780F
780F
780F
780E
781E
781E
783E
7EFC
7FF8
3FF0
ENDCHAR
STARTCHAR c
ENCODING 99
SWIDTH 471 0
DWIDTH 15 0
BBX 13 17 1 0
BITMAP
0300
0FF0
3FF8
7E78
7838
7038
F000
F000
F000
F000
F000
F000
7800
7810
7FF8
3FF8
1FF0
ENDCHAR
STARTCHAR d
ENCODING 100
SWIDTH 568 0
DWIDTH 18 0
BBX 16 23 1 0
BITMAP
00FC
00FC
00FC
001C
001C
001C
019C
0FFC
1FFC
3E3C
781C
781C
781C
F01C
F01C
F01C
F01C
F01C
781C
783C
7EFF
3FFF
1FDF
ENDCHAR
STARTCHAR e
ENCODING 101
SWIDTH 484 0
DWIDTH 15 0
BBX 13 17 1 0
BITMAP
0180
0FF0
1FF8
3C78
7838
7838
F078
F1F8
FFF0
FFC0
FE00
F000
7800
7810
7FF8
3FF8
1FF0
ENDCHAR
STARTCHAR f
ENCODING 102
SWIDTH 370 0
DWIDTH 12 0
BBX 13 23 0 0
BITMAP
07F0
0FF8
0FF8
1E08
1E00
1E00
1E00
FFF0
FFF0
FFF0
1E00
1E00
1E00
1E00
1E00
1E00
1E00
1E00
1E00
1E00
3FC0
7FC0
7FC0
ENDCHAR
STARTCHAR g
ENCODING 103
SWIDTH 544 0
DWIDTH 17 0
BBX 14 24 1 -7
BITMAP
0180
0FFC
3FFC
3E3C
781C
781C
F01C
F01C
F01C
F01C
F01C
F03C
783C
7EFC
3FFC
1FDC
001C
001C
703C
703C
7078
7FF8
7FF0
1F80
ENDCHAR
STARTCHAR h
ENCODING 104
SWIDTH 600 0
DWIDTH 19 0
BBX 17 23 1 0
BITMAP
FC0000
FC0000
FC0000
3C0000
3C0000
3C0000
3C7000
3DFC00
3FFE00
3F3E00
3E1E00
3C0F00
3C0F00
3C0F00
3C0F00
3C0F00
3C0F00
3C0F00
3C0F00
3C0F00
7F3F80
FF3F80
FF3F80
ENDCHAR
STARTCHAR i
ENCODING 105
SWIDTH 296 0
DWIDTH 9 0
BBX 8 23 1 0
BITMAP
38
7C
7C
7C
38
00
00
FC
FC
FC
3C
3C
3C
3C
3C
3C
3C
3C
3C
3C
7F
FF
FF
ENDCHAR
STARTCHAR j
ENCODING 106
SWIDTH 283 0
DWIDTH 9 0
BBX 10 30 -3 -7
BITMAP
0380
07C0
07C0
07C0
0380
0000
0000
0FC0
0FC0
0FC0
03C0
03C0
03C0
03C0
03C0
03C0
03C0
03C0
03C0
03C0
03C0
03C0
03C0
03C0
03C0
03C0
6780
7F80
FF00
3C00
ENDCHAR
STARTCHAR k
ENCODING 107
SWIDTH 556 0
DWIDTH 18 0
BBX 16 23 1 0
BITMAP
FC00
FC00
FC00
3C00
3C00
3C00
3C00
3C7F
3C7F
3C3F
3C1C
3C3C
3C78
3CF0
3FF0
3FF0
3EF0
3C78
3C78
3C3C
7F3F
FF1F
FF1F
ENDCHAR
STARTCHAR l
ENCODING 108
SWIDTH 298 0
DWIDTH 10 0
BBX 8 23 1 0
BITMAP
FC
FC
FC
3C
3C
3C
3C
3C
3C
3C
3C
3C
3C
3C
3C
3C
3C
3C
3C
3C
7F
FF
FF
ENDCHAR
STARTCHAR m
ENCODING 109
SWIDTH 866 0
DWIDTH 28 0
BBX 26 17 1 0
BITMAP
00601000
F9F8FE00
FBFDFE00
FF3F9F00
3C1F0F00
3C1E0F00
3C1E0F00
3C1E0F00
3C1E0F00
3C1E0F00
3C1E0F00
3C1E0F00
3C1E0F00
3C1E0F00
7F3F9FC0
FF7FBFC0
FF7FBFC0
ENDCHAR
STARTCHAR n
ENCODING 110
SWIDTH 600 0
DWIDTH 19 0
BBX 17 17 1 0
BITMAP
007000
F9FC00
FBFE00
FF3E00
3E1E00
3C0F00
3C0F00
3C0F00
3C0F00
3C0F00
3C0F00
3C0F00
3C0F00
3C0F00
7F3F80
FF3F80
FF3F80
ENDCHAR
STARTCHAR o
ENCODING 111
SWIDTH 528 0
DWIDTH 17 0
BBX 15 17 1 0
BITMAP
0180
0FF0
3FF8
7C7C
783C
703C
F01E
F01E
F01E
F01E
F01E
F01E
F03C
783C
7CF8
3FF0
1FE0
ENDCHAR
STARTCHAR p
ENCODING 112
SWIDTH 568 0
DWIDTH 18 0
BBX 16 24 1 -7
BITMAP
0060
F9FC
FFFE
FFFE
3C1E
3C1F
3C0F
3C0F
3C0F
3C0F
3C0F
3C0F
3C1E
3C1E
3FFE
3FFC
3FF8
3C00
3C00
3C00
3C00
FF00
FF00
FF00
ENDCHAR
STARTCHAR q
ENCODING 113
SWIDTH 551 0
DWIDTH 18 0
BBX 16 24 1 -7
BITMAP
0080
0FFC
1FFC
3E3C
7C1C
781C
781C
F01C
F01C
F01C
F01C
F01C
781C
783C
7EFC
3FFC
1FDC
001C
001C
001C
001C
00FF
00FF
00FF
ENDCHAR
STARTCHAR r
ENCODING 114
SWIDTH 462 0
DWIDTH 15 0
BBX 13 17 1 0
BITMAP
0060
F9F8
FBF8
FFF8
3E38
3C38
3C00
3C00
3C00
3C00
3C00
3C00
3C00
3C00
7F80
FF80
FF80
ENDCHAR
STARTCHAR s
ENCODING 115
SWIDTH 451 0
DWIDTH 14 0
BBX 12 17 1 0
BITMAP
0200
1FF0
3FF0
7870
7070
7070
7800
7F00
7FC0
1FF0
07F0
00F0
E070
E070
F9F0
FFE0
7FC0
ENDCHAR
STARTCHAR t
ENCODING 116
SWIDTH 377 0
DWIDTH 12 0
BBX 11 19 1 0
BITMAP
1C00
1C00
3C00
FFC0
FFC0
FFC0
3C00
3C00
3C00
3C00
3C00
3C00
3C00
3C00
3C00
3C00
3FC0
3FE0
1FE0
ENDCHAR
STARTCHAR u
ENCODING 117
SWIDTH 591 0
DWIDTH 19 0
BBX 17 16 1 0
BITMAP
FC7E00
FC7E00
FC7E00
3C1E00
3C1E00
3C1E00
3C1E00
3C1E00
3C1E00
3C1E00
3C1E00
3C1E00
3C3E00
3FFF80
1FEF80
1FCF80
ENDCHAR
STARTCHAR v
ENCODING 118
SWIDTH 558 0
DWIDTH 18 0
BBX 18 16 0 0
BITMAP
FF1FC0
FF1FC0
7E1F00
3C0F00
1E0E00
1E0E00
1E1E00
0E1C00
0F1C00
0F3C00
073800
07B800
07F800
03F000
03F000
03F000
ENDCHAR
STARTCHAR w
ENCODING 119
SWIDTH 795 0
DWIDTH 25 0
BBX 25 16 0 0
BITMAP
FF001F80
FF1E1F80
7E1E1F00
3C1F0E00
3C3F0E00
1E3F0E00
1E3F1C00
1E3F9C00
0E779C00
0E739C00
0F73D800
0FE3F800
07E1F800
07E1F800
07E1F800
07C1F000
ENDCHAR
STARTCHAR x
ENCODING 120
SWIDTH 534 0
DWIDTH 17 0
BBX 17 16 0 0
BITMAP
7F3F00
7F3F00
3E3E00
1E1C00
0F3800
07F000
07F000
03E000
03E000
07F000
0F7800
0E7C00
1C3C00
FE7F80
FE7F80
FE7F80
ENDCHAR
STARTCHAR y
ENCODING 121
SWIDTH 573 0
DWIDTH 18 0
BBX 15 23 1 -7
BITMAP
FC7E
FC7E
FC7E
3C1E
3C1E
3C1E
3C1E
3C1E
3C1E
3C1E
3C1E
3C3E
3FFE
3FEE
1FCE
000E
000E
380E
381E
383C
3FFC
3FF8
0FC0
ENDCHAR
STARTCHAR z
ENCODING 122
SWIDTH 483 0
DWIDTH 15 0
BBX 13 16 1 0
BITMAP
FFF8
FFF8
FFF8
E0F0
E1E0
03E0
03C0
0780
0F00
1F00
1E00
3C38
7838
FFF8
FFF8
FFF8
ENDCHAR
STARTCHAR braceleft
ENCODING 123
SWIDTH 340 0
DWIDTH 11 0
BBX 9 28 1 -5
BITMAP
0F80
1F80
3F00
3C00
3C00
3C00
3C00
3C00
3C00
3C00
3C00
3C00
7800
F800
F800
7800
3C00
3C00
3C00
3C00
3C00
3C00
3C00
3C00
3C00
3C00
3F00
1F80
ENDCHAR
STARTCHAR bar
ENCODING 124
SWIDTH 274 0
DWIDTH 9 0
BBX 3 27 3 -3
BITMAP
E0
E0
E0
E0
E0
E0
E0
E0
E0
E0
E0
E0
E0
E0
E0
E0
E0
E0
E0
E0
E0
E0
E0
E0
E0
E0
E0
ENDCHAR
STARTCHAR braceright
ENCODING 125
SWIDTH 340 0
DWIDTH 11 0
BBX 9 28 1 -5
BITMAP
F800
FC00
FC00
1E00
1E00
1E00
1E00
1E00
1E00
1C00
1C00
1E00
1E00
0F80
0F80
1F00
1E00
1E00
1E00
1E00
1E00
1E00
1E00
1E00
1E00
1E00
FC00
FC00
ENDCHAR
STARTCHAR asciitilde
ENCODING 126
SWIDTH 598 0
DWIDTH 19 0
BBX 17 5 1 7
BITMAP
1F0200
3FC780
FFFF00
70FF00
203C00
ENDCHAR
ENDFONT
